<?xml version="1.0" encoding="utf-8"?>
<!-- Generator: Adobe Illustrator 19.1.0, SVG Export Plug-In . SVG Version: 6.00 Build 0)  -->
<svg version="1.1" id="Layer_1" xmlns="http://www.w3.org/2000/svg" xmlns:xlink="http://www.w3.org/1999/xlink" x="0px" y="0px"
	 viewBox="42 -44 384 388" style="enable-background:new 42 -44 384 388;" xml:space="preserve">
<style type="text/css">
	.st0{fill:#E8E6E5;}
	.st1{fill:#281D17;}
</style>
<path class="st0" d="M42-44v388h384V-44H42z"/>
<path class="st1" d="M214,51c-4.7-3.3-18.8-0.7-22,4c-1.5-1-1.2-1-3-1v4c-1-1.5-1-1.2-1-3h-3v3c-1.2-1-1.6-1.3-3-2
	c0.5,2,0.7,2.4,2,4l-3,1c-0.7-3.5-2.3-2.5-5-1v4c-1-1.5-1-1.2-1-3c-5.4,1.3-15.2,5.7-15,12l-4-1c-1.2,1.2-1.4,1.3-3,2v6
	c-1-1.5-1-1.2-1-3c-1.9,0.8-3.3,1.8-5,3c0.7,3.3,0.4,7.2,4,8c-2.2,0.8-3.6,1-6,1l1,5c-1-1.5-1-1.2-1-3l-3,1c0.5-1.6,0.4-1.5,2-2
	l-2-3c-3.6,2.6-5.1,4.6-4,9l-4-2c0.2,2.8,0.6,3.4,3,5l-4,2v-3c-3.9,2.8-5.3,7.8-9,11c-0.4,8.2-8.1,14.3-5,23c-1.5-1-1.2-1-3-1
	c-2.1,4.8-3.2,8.8-2,14c-1.9,0.9-2,1.1-3,3c1.3-0.8,1.2-0.7,2-2c1.1,1.7,1.3,2.1,3,3l-3,2c0.2,2.2,0.2,2.2-1,4c1-1.5,1-1.2,1-3
	c-3,2.3-3,5.7,0,8c-1.9,2.3-2.5,4.1-3,7c2.6,1.8,2,2.8,0,5c0.7,8,1.4,16.2,3.4,24c0.9,3.5,0.8,7.2,4.6,8c-1.5,2.5-1.3,4.1-1,7l4-1
	c1.5,2.6,2.1,3.5,5,4l1,4l-7-3c1.6,4.1,2.4,7.2,7,8c-4.2,4.9,4.5,15.2,8.1,19.3c1.4,1.6,2.1,1.2,2.9-0.3c0.2,1.8,0.2,3.1,0,5
	c2.3,1.5,3.3,2.2,6,2c0.2,4.2,2.9,6.3,5.7,9.2c5.9,5.9,14.5,11.6,22.3,14.8l-2-5c7.3,9.7,17.9,14.2,30,16l-1-4l4,1
	c-1,1.5-1.4,2.3-2,4c2.4-0.5,2.5-0.6,3-3c8.9,5,15.6,6.9,26,6v-2h-4c2.8-1,5-1.1,8-1l-3,2c1.7,1.1,3,1.5,5,2c1-1.6,1.7-2.7,3-4
	c-1,1.5-1,1.2-1,3c1.3-0.8,1.2-0.7,2-2c4.1,2.8,8.4,1.3,13,0.5c8.2-1.5,16.2-3.4,24-6.5l-1-4c1.2,1.2,1.5,1.6,2,3
	c2.7-0.7,3.7-1.5,5-4l-6,1c5.3-2.4,15.7-0.6,14-8l4,3c7-7.1,17.6-11.7,22-21c-1.9,0.5-3.3,1.1-5,2c1.7-2.8,3.6-4.8,6-7
	c0,1.8,0,1.5,1,3h2c1.3-2.3,1.8-3.4,2-6c2.7-0.6,2.8-1.3,3-4c6.8-2.3,13.4-15.2,12-22c2.9-0.6,2.9-1.3,2-4h3c-0.8-1.3-0.7-1.2-2-2
	c2.2-1.4,3.7-2.5,1-4c2.6-1.6,2.7-1.5,1-4l3,1c-0.8-3.6-4.3-4-5-8c3.7,5.4,7.1,2.8,6-3c2.5-2.1,2.8-5.3,1-8c2.7-3.6,2.2-6.7,2.5-11
	c0.5-8.8,1.3-19.8-4.5-27c3.7-0.6,1.1-6.3,0.5-9c-1.6-6.5-3.8-18.1-11.5-19c1.1-1.4,2.2-2.4,3-4h-5c1.4-0.7,1.5-0.8,3-1l-1-4
	c-1.9,0-1.4-0.3-2,1l1-4c-1.3,0.8-1.2,0.7-2,2l-1-4l-3,1l3-4c-1.8,0-1.5,0-3-1c0.2-1.5,0.2-2.4,0-4c-1.3,0.8-1.2,0.7-2,2h-2
	c-0.8-1.3-0.7-1.2-2-2v-2h2c-1.6-4.7-6-6.6-8-11c-1.9,0.9-2.5,1.4-4,3c-0.1-2.3,0.3-3.8,1-6c-1.4,0.5-1.8,0.8-3,2c0.3-2,0.3-3,0-5
	c-1.3,0.8-1.2,0.7-2,2c-2.5-5.4-7-8.8-12.1-11.9c-2.2-1.3-4.5-3.6-5.9-1.1c-1.5-2.2-1.5-2.6-4-2c-0.2-1.1-0.2-3.4-1-4
	c-2-1.4-4.9-0.7-7-2l1-1c-2.1,0.9-2.1,0.9-3,3l-1-4c-2.1,0-1.7,0.1-2-2l-4,1c-2.1-2.5-4.9-2.3-8-2v-2c-2,0.3-2.9,0.6-4-1
	c-1.8,0-1.5,0-3,1c-2.4-2.7-8.4-3.8-11-1c-1.7-1.5-1.9-2-3,0c-4.4-4.1-14.3-3.1-20-2.2C216.9,48.4,214.7,47.5,214,51z"/>
<path class="st0" d="M225,49l-1,2h2C226,49.1,226.3,49.6,225,49 M231,49c-1.5,1-1.2,1-3,1C229.5,50.9,231.9,51.3,231,49 M221,50l1,1
	L221,50 M253,51l1,1L253,51 M262,54l-1,3c3,1.4,5.7,2.5,9,3C267.3,57.9,264.4,56.5,262,54 M266,54c0.5,1.6,0.4,1.5,2,2v-2H266
	 M276.7,60.3c-0.4,0.4,0.6,0.4,0.7,0.3C277.8,60.2,276.7,60.3,276.7,60.3 M178,61c1.2,0.7,1.5,0.7,3,1C179.8,61.3,179.5,61.3,178,61
	 M226,61.4c-12.4,1.6-27.5,2.5-39,7.8c-4.7,2.2-7.7,6.4-12,9c-5.1,3-17.8,3.4-15,12.8c1.1,3.6,4.9,5.2,8,6.8
	c6.8,3.6,13.4,7.7,20,11.8c22.4,14,45,30.8,62.8,50.4c16.1,17.7,30.9,36.6,43.4,57c3.1,5.1,8.4,19,15.8,18.3
	c5.7-0.5,12.7-10,15.6-14.3c5.8-8.5,5.8-17.3,7.7-27c0.9-4.8,3.5-9.2,4.4-14c1.2-6.9-0.8-14.2-1.9-21c-0.9-5.5-1.2-10.9-3.7-16
	c-2.4-5-6.5-8.9-8.7-14c-4.5-10.2-4.6-21.5-11.1-31c-12.8-18.6-31.7-25.2-52.2-30.9C248.1,63.7,238.8,59.7,226,61.4 M171,65l1,1
	L171,65 M161,73l1,1L161,73z"/>
<path class="st1" d="M143,88l4-1v-4C144,84,143.5,84.9,143,88z"/>
<path class="st0" d="M150.7,83.3c-0.4,0.4,0.6,0.4,0.7,0.3C151.8,83.2,150.7,83.3,150.7,83.3 M316,88l1,3c0.7-1.2,0.7-1.5,1-3H316
	 M319,90c0.9,1.9,1.4,2.6,3,4C321.2,92.2,320.5,91.3,319,90 M144,95l1,1L144,95 M149,95l1,1L149,95 M139.7,97.3
	c-0.4,0.4,0.6,0.4,0.7,0.3C140.8,97.2,139.7,97.3,139.7,97.3 M131,101l-2,7c2.2-2.2,3.1-4.1,4-7H131 M139,101v3h3v-3H139 M328,102
	l1,1L328,102 M144,103v3C144.7,104.4,144.7,104.6,144,103 M325.7,103.3c-0.4,0.4,0.6,0.4,0.7,0.3
	C326.8,103.2,325.7,103.3,325.7,103.3 M146.3,104.7c-0.1,0.1-0.1,1.1,0.3,0.7C146.7,105.3,146.8,104.2,146.3,104.7 M329,108
	c-0.7,1.6-0.8,1.8-2,3c1.7,1.1,3,1.5,5,2c-0.6-1.2-0.5-1-2-2h2C331,109.7,330.3,109,329,108 M143,109l1,1L143,109 M126,110
	c1.7,1.1,3,1.5,5,2C129.2,110.6,128.3,110.3,126,110 M140,113l3-1C141.2,111.6,141.4,111.7,140,113 M127,113c0.5,1.6,0.4,1.5,2,2v-2
	H127 M131,113l-1,6l4-1L131,113 M331,114c1,1.3,1.7,2,3,3l1-1C333.5,114.9,332.8,114.6,331,114 M135,116c1.4,0.9,2.4,1.4,4,2
	C137.7,116.4,137.1,116.3,135,116 M331,118l1,1L331,118 M137,119v2h2v-2H137 M333,119l-1,2h2C334,119.1,334.3,119.6,333,119
	 M127,120l-1,2C127.3,121,127.4,121.3,127,120 M129,120c0.6,4.1,2,5.9,6,7c-1.9-2.3-3.2-4.1-4-7H129 M337.7,120.3
	c-0.4,0.4,0.6,0.4,0.7,0.3C338.8,120.2,337.7,120.3,337.7,120.3 M140,121l-2,4C139.6,123.5,140.2,123.1,140,121 M122,122l1,1
	L122,122 M334,122c0.2,1.7,0.5,1.5-1,2c1,1.3,1.7,2,3,3c1.9-1,2.9-1.5,5-2c-2.2-0.8-3.6-0.5-6,0C335,123.2,335.1,123.4,334,122
	 M127.3,123.7c-0.1,0.1-0.1,1.1,0.3,0.7C127.7,124.3,127.8,123.2,127.3,123.7 M124,125c-1.9,0.8-2.9,1-5,1
	C120.7,128.2,123.5,127.9,124,125 M339,127v2h2v-2H339 M127,128l1,1L127,128 M333.7,128.3c-0.4,0.4,0.6,0.4,0.7,0.3
	C334.8,128.2,333.7,128.3,333.7,128.3 M120,129l1,1L120,129 M333,134l3-1C334.2,132.6,334.4,132.7,333,134 M342,134l1,1L342,134
	 M121,136v2h2C122.5,136.4,122.6,136.5,121,136 M117,139l1,1L117,139 M115.7,143.3c-0.4,0.4,0.6,0.4,0.7,0.3
	C116.8,143.2,115.7,143.3,115.7,143.3 M346,143l1,1L346,143 M116.3,146.7c-0.1,0.1-0.1,1.1,0.3,0.7
	C116.7,147.3,116.8,146.2,116.3,146.7 M345.3,148.7c-0.1,0.1-0.1,1.1,0.3,0.7C345.7,149.3,345.8,148.2,345.3,148.7 M342,153l1,1
	L342,153 M346,154v2h2v-2H346 M342,157c0.3,2.7,0.4,4,3,4c-0.2,1.9-0.2,3.1,0,5c0.9-1.6,1.4-3.2,2-5L342,157 M112,163l1,1L112,163z"
	/>
<path class="st1" d="M110,168v2h2v-2H110z"/>
<path class="st0" d="M343.3,168.7c-0.1,0.1-0.1,1.1,0.3,0.7C343.7,169.3,343.8,168.2,343.3,168.7 M113,171l-1,5
	C113.3,174.1,113.7,173.2,113,171 M345.3,176.7c-0.1,0.1-0.1,1.1,0.3,0.7C345.7,177.3,345.8,176.2,345.3,176.7 M112,178l1,1L112,178
	 M347.3,179.7c-0.1,0.1-0.1,1.1,0.3,0.7C347.7,180.3,347.8,179.2,347.3,179.7 M121,180c0,12.9,4,24.5,9.5,36.1
	C148,252.7,185.4,278,226,278v-2c-16.5-1.1-29.3-7.5-43.2-15.8c-6.1-3.6-13-6.7-18.5-11.3c-2-1.6-3.1-4-4.9-5.8
	c-8-7.8-16.4-15.8-22.1-25.6c-4.7-8.1-8.2-18-12-26.6C123.6,187.2,123.5,183.2,121,180 M345,189l1,1L345,189 M342,193l1,1L342,193
	 M345,195l1,1L345,195 M116.3,199.7c-0.1,0.1-0.1,1.1,0.3,0.7C116.7,200.3,116.8,199.2,116.3,199.7 M118,203l1,1L118,203
	 M118.7,207.3c-0.4,0.4,0.6,0.4,0.7,0.3C119.8,207.2,118.7,207.3,118.7,207.3z"/>
<path class="st1" d="M119,212v2h2v-2H119z"/>
<path class="st0" d="M124,218l1,1L124,218 M337,219l1,1L337,219 M332,228l1,1L332,228 M133,233l-1,3C133.8,235,134,234.8,133,233
	 M134,237l1,1L134,237 M136,240v2h2v-2H136 M318,244l1,1L318,244 M141.3,246.7c-0.1,0.1-0.1,1.1,0.3,0.7
	C141.7,247.3,141.8,246.2,141.3,246.7 M143,247l1,1L143,247 M161,263c1.2,1.7,2,2.2,4,3C163.8,264,163.3,263.7,161,263 M166,266
	c1.3,1.6,1.9,1.7,4,2C168.5,266.9,167.8,266.6,166,266 M284,271l7-3C287.8,267.1,285.8,268.3,284,271 M289,270l1,1L289,270z"/>
<path class="st1" d="M284,274v2h2v-2H284z"/>
<path class="st0" d="M197,281l1,1L197,281 M266,281l1,1L266,281z"/>
<path class="st1" d="M206.3,284.7c-0.1,0.1-0.1,1.1,0.3,0.7C206.7,285.3,206.8,284.2,206.3,284.7z"/>
</svg>
